<?xml version="1.0" standalone="no"?><!DOCTYPE svg PUBLIC "-//W3C//DTD SVG 1.1//EN" "http://www.w3.org/Graphics/SVG/1.1/DTD/svg11.dtd"><svg t="1681724277951" class="icon" viewBox="0 0 1024 1024" version="1.1" xmlns="http://www.w3.org/2000/svg" p-id="9139" width="1024" height="1024" xmlns:xlink="http://www.w3.org/1999/xlink"><path d="M512 0C229.233705 0 0 229.216503 0 511.982798s229.233705 512 512 512 512-229.216503 512-512S794.731891 0 512 0z m269.262734 881.584733q-48.853649 0-84.995028-125.677731-14.105631-47.735519-35.625319-167.100121-53.721812 7.603279-140.505846 26.594275l-140.144604 29.140169q-26.594275 69.410026-90.774896 202.98347c-11.404919 19.696277-26.594275 29.656229-46.118533 29.656229-14.105631 0-26.577073-5.074587-37.844375-15.378578a50.143798 50.143798 0 0 1-16.634324-38.154012q0-25.493348 79.920441-193.677194a57.041795 57.041795 0 0 1-9.048246-31.823679c0-28.572504 17.374009-47.013036 51.915603-55.149577q60.206961-113.378309 152.254804-260.403709 125.57452-200.712807 156.245666-200.730009c28.02204 0 47.013036 19.352238 57.317027 58.228732l33.268647 178.126596 79.215159 368.122564 30.189491 84.083322c10.321193 28.572504 15.378578 47.752721 15.378578 57.33423a50.350222 50.350222 0 0 1-16.462304 38.446445c-11.026475 10.321193-23.497917 15.378578-37.603547 15.378578zM593.915872 275.249026l43.572638 204.153205q-130.459884 23.325897-194.382476 39.7882z" fill="#36ab60" p-id="9140" data-spm-anchor-id="a313x.7781069.0.i6" class="selected"></path></svg>