<?xml version="1.0" standalone="no"?><!DOCTYPE svg PUBLIC "-//W3C//DTD SVG 1.1//EN" "http://www.w3.org/Graphics/SVG/1.1/DTD/svg11.dtd"><svg t="1680839611087" class="icon" viewBox="0 0 1024 1024" version="1.1" xmlns="http://www.w3.org/2000/svg" p-id="27249" xmlns:xlink="http://www.w3.org/1999/xlink" width="1024" height="1024"><path d="M245.9 873.5V157c0-26.4 21.6-48 48-48h513.4c26.4 0 48 21.6 48 48v716.5c0 26.4-21.6 48-48 48H293.9c-26.4 0-48-21.6-48-48z" fill="#4E98A0" p-id="27250"></path><path d="M247.6 867.2V163c0-6.6 5.4-12 12-12h537.9c6.6 0 12 5.4 12 12v704.2c0 6.6-5.4 12-12 12H259.6c-6.6 0-12-5.4-12-12z" fill="#B9D5EA" p-id="27251"></path><path d="M797.5 889.2H259.6c-12.1 0-22-9.9-22-22V163c0-12.1 9.9-22 22-22h537.9c12.1 0 22 9.9 22 22v704.2c0 12.1-9.8 22-22 22zM259.6 161c-1.1 0-2 0.9-2 2v704.2c0 1.1 0.9 2 2 2h537.9c1.1 0 2-0.9 2-2V163c0-1.1-0.9-2-2-2H259.6z" fill="#322E63" p-id="27252"></path><path d="M807.2 931.5H293.9c-32 0-58-26-58-58V157c0-32 26-58 58-58h513.4c32 0 58 26 58 58v716.5c-0.1 32-26.1 58-58.1 58zM293.9 119c-21 0-38 17-38 38v716.5c0 21 17 38 38 38h513.4c21 0 38-17 38-38V157c0-21-17-38-38-38H293.9z" fill="#322E63" p-id="27253"></path><path d="M167.8 873.5V157c0-26.4 21.6-48 48-48h492.7c26.4 0 48 21.6 48 48v716.5c0 26.4-21.6 48-48 48H215.8c-26.4 0-48-21.6-48-48z" fill="#4E98A0" p-id="27254"></path><path d="M167.8 873.5V157c0-26.4 21.6-48 48-48H669c26.4 0 48 21.6 48 48v716.5c0 26.4-21.6 48-48 48H215.8c-26.4 0-48-21.6-48-48z" fill="#76C49A" p-id="27255"></path><path d="M708.6 931.5H215.8c-32 0-58-26-58-58V157c0-32 26-58 58-58h492.7c32 0 58 26 58 58v716.5c0.1 32-25.9 58-57.9 58zM215.8 119c-21 0-38 17-38 38v716.5c0 21 17 38 38 38h492.7c21 0 38-17 38-38V157c0-21-17-38-38-38H215.8z" fill="#322E63" p-id="27256"></path><path d="M411.2 341.1l-72.7-48.4-72.8 48.4v-210h145.5z" fill="#4E98A0" p-id="27257"></path><path d="M411.2 298.1l-72.7-48.4-72.7 48.4v-186c0-13.3 10.7-24 24-24h97.5c13.3 0 24 10.7 24 24v186z" fill="#FF525F" p-id="27258"></path><path d="M411.2 290.1l-72.7-50.2-72.7 50.2V143.9c0-13.7 10.7-24.9 24-24.9h97.5c13.3 0 24 11.1 24 24.9v146.2z" fill="#EA4468" p-id="27259"></path><path d="M411.2 308.1c-1.9 0-3.9-0.6-5.5-1.7l-67.2-44.7-67.2 44.7c-3.1 2-7 2.2-10.3 0.5-3.3-1.7-5.3-5.1-5.3-8.8v-186c0-18.7 15.3-34 34-34h97.5c18.7 0 34 15.3 34 34v186c0 3.7-2 7.1-5.3 8.8-1.4 0.8-3 1.2-4.7 1.2z m-121.5-210c-7.7 0-14 6.3-14 14v167.3l57.2-38.1c3.4-2.2 7.7-2.2 11.1 0l57.2 38.1V112.1c0-7.7-6.3-14-14-14h-97.5z" fill="#322E63" p-id="27260"></path><path d="M620.4 416H451.7c-5.5 0-10-4.5-10-10s4.5-10 10-10h168.7c5.5 0 10 4.5 10 10s-4.5 10-10 10zM620.4 495.3h-78.8c-5.5 0-10-4.5-10-10s4.5-10 10-10h78.8c5.5 0 10 4.5 10 10s-4.5 10-10 10zM481.8 495.3H299.1c-5.5 0-10-4.5-10-10s4.5-10 10-10h182.7c5.5 0 10 4.5 10 10s-4.4 10-10 10zM620.4 569H299.1c-5.5 0-10-4.5-10-10s4.5-10 10-10h321.3c5.5 0 10 4.5 10 10s-4.5 10-10 10zM620.4 644.6H464.6c-5.5 0-10-4.5-10-10s4.5-10 10-10h155.8c5.5 0 10 4.5 10 10s-4.5 10-10 10zM390.5 644.6h-91.4c-5.5 0-10-4.5-10-10s4.5-10 10-10h91.4c5.5 0 10 4.5 10 10s-4.5 10-10 10z" fill="#322E63" p-id="27261"></path></svg>