<?xml version="1.0" standalone="no"?><!DOCTYPE svg PUBLIC "-//W3C//DTD SVG 1.1//EN" "http://www.w3.org/Graphics/SVG/1.1/DTD/svg11.dtd"><svg t="1664560199413" class="icon" viewBox="0 0 1024 1024" version="1.1" xmlns="http://www.w3.org/2000/svg" p-id="9041" xmlns:xlink="http://www.w3.org/1999/xlink" width="200" height="200"><path d="M509.1 265.6l-61.9-61.9c-84.7-84.7-222.2-84.7-306.9 0-84.7 84.7-84.7 222.2 0 306.9l61.9 61.9 285.9 285.9c11.6 11.6 30.3 11.6 41.9 0l286-285.9 61.9-61.9c84.7-84.7 84.7-222.2 0-306.9-84.7-84.7-222.2-84.7-306.9 0l-61.9 61.9z" fill="#CE3604" p-id="9042"></path><path d="M486 814.4l285.9-285.9 61.9-61.9c46.3-46.3 67.3-108.2 63-168.7-5.9-83.8-73.4-151.3-157.2-157.2-60.5-4.3-122.5 16.7-168.7 63L509 265.6l-44-44-17.9-17.9c-84.7-84.7-222.2-84.7-306.9 0-84.7 84.7-84.7 222.2 0 306.9l17.9 17.9 44 44L444 814.4c11.7 11.6 30.4 11.6 42 0z" fill="#F25A25" p-id="9043"></path><path d="M897.4 312.8c-0.1-70.5-57.1-127.4-127.6-127.5-55.6 0-111.2 21.1-153.6 63.5l-61.9 61.9-61.9-61.9c-84.7-84.7-222.2-84.7-306.9 0-84.7 84.7-84.7 222.2 0 306.9l61.9 61.9 49.3 49.3 147.4 147.4c11.6 11.6 30.3 11.6 41.9 0l285.9-285.9 61.9-61.9c42.5-42.4 63.7-98 63.6-153.7z" fill="#F24500" p-id="9044"></path></svg>