<?xml version="1.0" standalone="no"?><!DOCTYPE svg PUBLIC "-//W3C//DTD SVG 1.1//EN" "http://www.w3.org/Graphics/SVG/1.1/DTD/svg11.dtd"><svg t="1680612866101" class="icon" viewBox="0 0 1024 1024" version="1.1" xmlns="http://www.w3.org/2000/svg" p-id="75671" width="1024" height="1024" xmlns:xlink="http://www.w3.org/1999/xlink"><path d="M900.144 96.24H123.84a66.896 66.896 0 0 0-66.816 66.832v541.152a66.896 66.896 0 0 0 66.816 66.832h467.744a24 24 0 0 0 0-48H123.84a18.848 18.848 0 0 1-18.816-18.832V163.04A18.864 18.864 0 0 1 123.84 144.208h776.304a18.848 18.848 0 0 1 18.816 18.832v541.152a18.832 18.832 0 0 1-18.816 18.832H753.76a24 24 0 0 0 0 48h146.384a66.896 66.896 0 0 0 66.816-66.832V163.04a66.896 66.896 0 0 0-66.816-66.8z" fill="#666666" p-id="75672"></path><path d="M795.808 879.76H213.168a24 24 0 0 0 0 48h582.64a24 24 0 0 0 0-48z" fill="#666666" p-id="75673"></path><path d="M204.192 393.84v192.608a24 24 0 0 0 48 0V393.84a24 24 0 0 0-48 0z" fill="#1771B9" p-id="75674"></path><path d="M478.096 452.64v133.856a24 24 0 0 0 48 0V452.64a24 24 0 0 0-48 0z" fill="#1771B9" p-id="75675"></path><path d="M819.808 586.448V452.64a24 24 0 0 0-48 0v133.856a24 24 0 0 0 48 0z" fill="#1771B9" p-id="75676"></path><path d="M342.336 273.04v313.408a24 24 0 0 0 48 0V273.04a24 24 0 0 0-48 0z" fill="#1771B9" p-id="75677"></path><path d="M648.64 249.04a24 24 0 0 0-24 24v313.408a24 24 0 0 0 48 0V273.04a24 24 0 0 0-24-24z" fill="#1771B9" p-id="75678"></path><path d="M655.152 733.808a32.24 32.24 0 0 0-2.24 4c-0.48 1.44-0.96 3.04-1.28 4.48a24.416 24.416 0 0 0-0.48 4.8 25.008 25.008 0 0 0 1.76 9.12 26.048 26.048 0 0 0 5.28 7.84 22.288 22.288 0 0 0 7.68 5.12 23.504 23.504 0 0 0 9.28 1.92 22.192 22.192 0 0 0 9.12-1.92 22.912 22.912 0 0 0 7.84-5.12 26.048 26.048 0 0 0 5.28-7.84 25.008 25.008 0 0 0 1.76-9.12 24 24 0 0 0-7.04-16.96 24.752 24.752 0 0 0-33.92 0 23.264 23.264 0 0 0-3.04 3.68z" fill="#666666" p-id="75679"></path></svg>