<svg id="图层_1" data-name="图层 1" xmlns="http://www.w3.org/2000/svg" viewBox="0 0 566.93 566.93"><defs><style>.cls-1{fill:#040000;}</style></defs><path class="cls-1" d="M65.21,487.47H345.56A156.16,156.16,0,0,0,501.72,331.32h0A156.16,156.16,0,0,0,345.56,175.17h-123A33.54,33.54,0,0,0,189,208.68v1a33.54,33.54,0,0,0,33.54,33.56H344.44c48.51,0,88.77,38.74,89.24,87.25a88.22,88.22,0,0,1-88.12,89s-224.06.51-280.35-.7Z"/><path class="cls-1" d="M501.72,49.6H221.37A156.15,156.15,0,0,0,65.21,205.75h0A156.15,156.15,0,0,0,221.37,361.9h123a33.54,33.54,0,0,0,33.54-33.5v-1a33.54,33.54,0,0,0-33.54-33.56H222.49c-48.52,0-88.77-38.74-89.24-87.25a88.22,88.22,0,0,1,88.12-89s224.05-.51,280.35.7Z"/></svg>