<?xml version="1.0" standalone="no"?><!DOCTYPE svg PUBLIC "-//W3C//DTD SVG 1.1//EN" "http://www.w3.org/Graphics/SVG/1.1/DTD/svg11.dtd"><svg t="1680839203870" class="icon" viewBox="0 0 1024 1024" version="1.1" xmlns="http://www.w3.org/2000/svg" p-id="10195" xmlns:xlink="http://www.w3.org/1999/xlink" width="1024" height="1024"><path d="M512 1024c282.7776 0 512-229.2224 512-512C1024 229.2224 794.7776 0 512 0 229.2224 0 0 229.2224 0 512c0 282.7776 229.2224 512 512 512z" fill="#F57D00" p-id="10196"></path><path d="M534.6304 204.8H537.429333c93.422933 2.56 161.655467 78.455467 164.642134 158.395733h0.256c0.238933 2.321067 0.2048 4.864 0.4096 7.236267 1.860267 22.528 1.604267 47.138133-4.266667 71.970133 2.901333 0.1024 5.700267 0.221867 8.533333 0.392534 25.088 1.501867 54.306133 4.9152 79.7696 28.945066 25.480533 24.029867 29.5936 54.2208 31.095467 76.168534 1.4848 21.947733 0.785067 43.588267 1.3312 72.226133v1.8432c-0.597333 55.159467-17.322667 106.683733-53.367467 143.2576-36.0448 36.590933-87.5008 53.504-140.0832 53.930667H402.0224c-0.273067 0.017067-0.529067 0-0.802133 0-56.251733 0.597333-110.728533-12.202667-149.162667-51.029334-37.7856-38.178133-49.800533-92.381867-46.830933-149.333333h-0.119467c0-0.512 0.119467-1.024 0.119467-1.570133 0.0512-0.699733-0.034133-1.3824 0-2.0992h0.273066l4.010667-244.445867h0.119467c1.160533-31.675733 8.3968-66.2528 31.488-98.133333 29.457067-40.635733 84.6848-65.672533 147.968-65.518934h1.450666L534.6304 204.8z m-139.144533 358.4c-19.2512-0.256-37.1712 9.437867-46.865067 25.3952a49.390933 49.390933 0 0 0 0 51.6096c9.693867 15.957333 27.613867 25.6512 46.865067 25.3952h250.094933c19.2512 0.256 37.1712-9.437867 46.865067-25.3952a49.390933 49.390933 0 0 0 0-51.6096c-9.693867-15.957333-27.613867-25.6512-46.865067-25.3952H395.485867z m18.756266-221.866667c-30.378667-0.4096-55.381333 21.742933-55.842133 49.493334-0.443733 27.767467 23.808 50.602667 54.186667 51.029333l128.853333 1.877333c30.378667 0.443733 55.3984-21.674667 55.893333-49.442133 0.477867-27.7504-23.739733-50.619733-54.101333-51.063467L414.225067 341.333333z" fill="#FFFFFF" p-id="10197"></path></svg>