<?xml version="1.0" standalone="no"?><!DOCTYPE svg PUBLIC "-//W3C//DTD SVG 1.1//EN" "http://www.w3.org/Graphics/SVG/1.1/DTD/svg11.dtd"><svg t="1680839101446" class="icon" viewBox="0 0 1024 1024" version="1.1" xmlns="http://www.w3.org/2000/svg" p-id="2837" width="1024" height="1024" xmlns:xlink="http://www.w3.org/1999/xlink"><path d="M656 240V16H144v992h736V240z" fill="#C5BCDD" p-id="2838"></path><path d="M208 144h64V80h-64v64z m0 160h64v-64h-64v64z m0 160h64v-64h-64v64z m0 160h64v-64h-64v64z m0 160h64v-64h-64v64z m0 160h64v-64h-64v64z m544-704v64h64v-64h-64z m0 224h64v-64h-64v64z m0 320h64v-64h-64v64z m0 160h64v-64h-64v64z m0-320h64v-64h-64v64z" fill="#9D90C5" p-id="2839"></path><path d="M448 416v192l160-96z" fill="#FFFFFF" p-id="2840"></path><path d="M656 16v224h224z" fill="#9D90C5" p-id="2841"></path><path d="M256 704h-32a32 32 0 0 0-32 32v32a32 32 0 0 0 32 32h32a32 32 0 0 0 32-32v-32a32 32 0 0 0-32-32z m0 64h-32v-32h32v32z m544-384h-32a32 32 0 0 0-32 32v32a32 32 0 0 0 32 32h32a32 32 0 0 0 32-32v-32a32 32 0 0 0-32-32z m0 64h-32v-32h32v32zM256 864h-32a32 32 0 0 0-32 32v32a32 32 0 0 0 32 32h32a32 32 0 0 0 32-32v-32a32 32 0 0 0-32-32z m0 64h-32v-32h32v32z m639.904-688.176a15.536 15.536 0 0 0-4.464-10.48L666.656 4.56a15.376 15.376 0 0 0-10.336-4.432L656 0H160a32 32 0 0 0-32 32v960a32 32 0 0 0 32 32h704a32 32 0 0 0 32-32V240l-0.096-0.176zM672 54.096L841.904 224H672V54.096zM800 256v32h-32v-32h32z m64 736H160V32h480v224h96v32a32 32 0 0 0 32 32h32a32 32 0 0 0 32-32v-32h32v736z m-64-128h-32a32 32 0 0 0-32 32v32a32 32 0 0 0 32 32h32a32 32 0 0 0 32-32v-32a32 32 0 0 0-32-32z m0 64h-32v-32h32v32zM256 64h-32a32 32 0 0 0-32 32v32a32 32 0 0 0 32 32h32a32 32 0 0 0 32-32V96a32 32 0 0 0-32-32z m0 64h-32V96h32v32z m0 416h-32a32 32 0 0 0-32 32v32a32 32 0 0 0 32 32h32a32 32 0 0 0 32-32v-32a32 32 0 0 0-32-32z m0 64h-32v-32h32v32z m544 96h-32a32 32 0 0 0-32 32v32a32 32 0 0 0 32 32h32a32 32 0 0 0 32-32v-32a32 32 0 0 0-32-32z m0 64h-32v-32h32v32zM256 224h-32a32 32 0 0 0-32 32v32a32 32 0 0 0 32 32h32a32 32 0 0 0 32-32v-32a32 32 0 0 0-32-32z m0 64h-32v-32h32v32z m544 256h-32a32 32 0 0 0-32 32v32a32 32 0 0 0 32 32h32a32 32 0 0 0 32-32v-32a32 32 0 0 0-32-32z m0 64h-32v-32h32v32zM256 384h-32a32 32 0 0 0-32 32v32a32 32 0 0 0 32 32h32a32 32 0 0 0 32-32v-32a32 32 0 0 0-32-32z m0 64h-32v-32h32v32z" fill="#2B3139" p-id="2842"></path><path d="M623.68 508.992a17.584 17.584 0 0 0-1.008-3.104c-0.256-0.608-0.288-1.28-0.608-1.872-0.176-0.304-0.448-0.448-0.624-0.72-0.56-0.896-1.296-1.632-2.048-2.384s-1.456-1.536-2.32-2.112c-0.272-0.192-0.416-0.464-0.704-0.64l-157.776-93.936a15.584 15.584 0 0 0-8.304-3.728c-0.512-0.112-0.992-0.272-1.52-0.32-0.272-0.032-0.48-0.176-0.768-0.176-0.576 0-1.056 0.272-1.632 0.336a14.72 14.72 0 0 0-4.32 0.88c-0.288 0.112-0.528 0.288-0.816 0.4a14.816 14.816 0 0 0-4.336 2.928c-0.224 0.224-0.352 0.448-0.56 0.672-0.832 0.896-1.76 1.664-2.4 2.8-0.256 0.464-0.272 0.992-0.464 1.456-0.176 0.384-0.256 0.8-0.384 1.2a15.984 15.984 0 0 0-0.992 4.928c-0.016 0.112-0.096 0.24-0.096 0.4v192c0 0.16 0.08 0.288 0.096 0.416a15.616 15.616 0 0 0 0.992 4.928c0.144 0.4 0.224 0.816 0.384 1.2 0.208 0.464 0.224 0.992 0.464 1.456 0.64 1.12 1.584 1.904 2.4 2.8 0.208 0.224 0.336 0.448 0.56 0.656a15.072 15.072 0 0 0 4.336 2.944c0.288 0.128 0.528 0.304 0.816 0.4a15.264 15.264 0 0 0 4.32 0.88c0.576 0.048 1.056 0.32 1.632 0.32 0.288 0 0.496-0.144 0.784-0.16 0.512-0.048 0.992-0.208 1.52-0.32a15.632 15.632 0 0 0 8.304-3.728l157.776-93.936c0.288-0.176 0.432-0.448 0.704-0.64 0.864-0.576 1.568-1.344 2.32-2.112s1.488-1.504 2.048-2.384c0.176-0.272 0.448-0.416 0.624-0.72 0.336-0.592 0.352-1.248 0.608-1.872 0.416-1.024 0.8-2.016 1.008-3.104 0.192-1.008 0.208-2 0.208-3.008s-0.032-2.016-0.224-3.024zM464 579.632v-135.248L577.6 512 464 579.632z" fill="#2B3139" p-id="2843"></path></svg>