<?xml version="1.0" standalone="no"?><!DOCTYPE svg PUBLIC "-//W3C//DTD SVG 1.1//EN" "http://www.w3.org/Graphics/SVG/1.1/DTD/svg11.dtd"><svg t="1680611131258" class="icon" viewBox="0 0 1024 1024" version="1.1" xmlns="http://www.w3.org/2000/svg" p-id="3393" width="1024" height="1024" xmlns:xlink="http://www.w3.org/1999/xlink"><path d="M469.333333 277.333333L264.533333 298.666667c-12.8 0-25.6 12.8-25.6 25.6l-21.333333 213.333333c0 8.533333 4.266667 17.066667 8.533333 25.6l260.266667 247.466667c25.6 25.6 68.266667 25.6 93.866667 0l174.933333-179.2c25.6-25.6 25.6-68.266667 0-93.866667l-260.266667-247.466667c-8.533333-12.8-17.066667-12.8-25.6-12.8z m-55.466666 251.733334c-29.866667 0-51.2-21.333333-51.2-51.2S384 426.666667 413.866667 426.666667s51.2 21.333333 51.2 51.2-21.333333 51.2-51.2 51.2z" fill="#FFDD48" p-id="3394"></path><path d="M529.066667 849.066667c-21.333333 0-42.666667-8.533333-59.733334-25.6l-256-247.466667c-12.8-8.533333-17.066667-25.6-17.066666-42.666667l21.333333-213.333333c4.266667-21.333333 21.333333-42.666667 42.666667-42.666667L469.333333 256c12.8 0 29.866667 4.266667 38.4 12.8l260.266667 247.466667c17.066667 17.066667 25.6 38.4 25.6 59.733333 0 21.333333-8.533333 46.933333-25.6 64l-174.933333 179.2c-17.066667 21.333333-38.4 29.866667-64 29.866667z m-55.466667-554.666667l-204.8 25.6c-8.533333 0-8.533333 4.266667-12.8 8.533333l-21.333333 213.333334c0 4.266667 0 4.266667 4.266666 8.533333l260.266667 247.466667c17.066667 17.066667 46.933333 17.066667 68.266667 0l174.933333-179.2c8.533333-8.533333 12.8-21.333333 12.8-34.133334 0-12.8-4.266667-25.6-12.8-34.133333L477.866667 298.666667l-4.266667-4.266667z m-59.733333 256c-38.4 0-72.533333-29.866667-72.533334-72.533333s29.866667-72.533333 72.533334-72.533334 72.533333 29.866667 72.533333 72.533334-29.866667 72.533333-72.533333 72.533333z m0-102.4c-17.066667 0-29.866667 12.8-29.866667 29.866667 0 17.066667 12.8 34.133333 29.866667 34.133333 17.066667 0 29.866667-12.8 29.866666-29.866667 4.266667-21.333333-12.8-34.133333-29.866666-34.133333z" fill="" p-id="3395"></path><path d="M772.266667 571.733333c-4.266667 0-8.533333 0-12.8-4.266666-8.533333-8.533333-8.533333-21.333333 0-29.866667l17.066666-17.066667c17.066667-21.333333 17.066667-51.2 0-68.266666l-238.933333-234.666667c-4.266667 0-4.266667-4.266667-8.533333-4.266667h-213.333334c-8.533333 0-12.8 4.266667-12.8 8.533334v72.533333c0 12.8-8.533333 21.333333-21.333333 21.333333s-17.066667-8.533333-17.066667-21.333333V221.866667c0-25.6 21.333333-46.933333 46.933334-46.933334h213.333333c12.8 0 25.6 4.266667 34.133333 12.8l238.933334 234.666667c34.133333 34.133333 34.133333 89.6 4.266666 123.733333l-17.066666 17.066667c0 8.533333-8.533333 8.533333-12.8 8.533333z" fill="" p-id="3396"></path></svg>