<?xml version="1.0" standalone="no"?><!DOCTYPE svg PUBLIC "-//W3C//DTD SVG 1.1//EN" "http://www.w3.org/Graphics/SVG/1.1/DTD/svg11.dtd"><svg t="1680611491013" class="icon" viewBox="0 0 1024 1024" version="1.1" xmlns="http://www.w3.org/2000/svg" p-id="7041" width="1024" height="1024" xmlns:xlink="http://www.w3.org/1999/xlink"><path d="M509.4 508.5m-469.5 0a469.5 469.5 0 1 0 939 0 469.5 469.5 0 1 0-939 0Z" fill="#242424" p-id="7042"></path><path d="M617.9 467.2c-0.3-0.6-0.5-1.2-0.8-1.8-0.1-0.1-0.1-0.2-0.2-0.4-7.2-14.5-22.7-23.9-39.9-22.6-22.5 1.8-39.4 21.5-37.6 44 0.5 5.8 2.1 11.1 4.6 15.9 11.4 25.7 6.4 57-14.6 78.1l-110 110.2c-27.3 27.3-71.7 27.3-99 0-27.3-27.3-27.3-71.7 0-99l41-41-0.3-0.3c9.5-8.2 15-20.7 14-34.1-1.8-22.5-21.5-39.4-44-37.6-10.8 0.8-20.2 5.8-27 13.2l-0.1-0.1-41.8 41.8c-59.4 59.4-59.4 155.6 0 215 59.4 59.4 155.6 59.4 215 0l110.3-110.3c46.2-46.3 56.2-114.8 30.4-171z" fill="#FFFFFF" p-id="7043"></path><path d="M762.4 257.4c-59.4-59.4-155.6-59.4-215 0L437.1 367.7c-46.2 46.2-56.2 114.7-30.5 170.9 0.3 0.6 0.5 1.2 0.8 1.8 0.1 0.1 0.1 0.2 0.2 0.4 7.2 14.5 22.7 23.9 39.9 22.6 22.5-1.8 39.4-21.5 37.6-44-0.5-5.8-2.1-11.1-4.6-15.9-11.4-25.7-6.4-57 14.6-78.1l110.1-110.1c27.3-27.3 71.7-27.3 99 0 27.3 27.3 27.3 71.7 0 99l-41 41 0.3 0.3c-9.5 8.2-15 20.7-14 34.1 1.8 22.5 21.5 39.4 44 37.6 10.8-0.8 20.2-5.8 27-13.2l0.1 0.1 41.8-41.8c59.3-59.4 59.3-155.7 0-215z" fill="#FFFFFF" p-id="7044"></path></svg>